<?xml version="1.0" standalone="no"?>
<!DOCTYPE svg PUBLIC "-//W3C//DTD SVG 20010904//EN"
 "http://www.w3.org/TR/2001/REC-SVG-20010904/DTD/svg10.dtd">
<svg version="1.0" xmlns="http://www.w3.org/2000/svg"
 width="1080.000000pt" height="1080.000000pt" viewBox="0 0 1080.000000 1080.000000"
 preserveAspectRatio="xMidYMid meet">
<metadata>
Created by potrace 1.14, written by Peter Selinger 2001-2017
</metadata>
<g transform="translate(0.000000,1080.000000) scale(0.100000,-0.100000)"
fill="#000000" stroke="none">
<path d="M443 10782 c15 -17 15 -19 -3 -35 -11 -9 -33 -17 -50 -17 -16 0 -31
-4 -34 -9 -3 -5 -15 -7 -27 -4 -11 3 -31 0 -43 -6 -28 -15 -184 -9 -266 10
-13 4 -15 -598 -18 -5358 l-2 -5363 5400 0 5400 0 0 5360 c0 5353 0 5360 -20
5360 -11 0 -20 -5 -20 -11 0 -6 -6 -9 -14 -6 -7 3 -23 -1 -35 -9 -19 -14 -22
-13 -28 3 -6 16 -8 15 -14 -7 -6 -20 -7 -21 -8 -5 -1 17 -9 21 -58 23 -32 2
-63 8 -69 13 -8 7 -14 7 -18 0 -8 -12 -75 -9 -84 4 -4 6 -20 11 -37 13 -23 2
-26 0 -15 -8 9 -6 10 -10 3 -10 -6 0 -15 5 -19 11 -3 6 -15 9 -25 6 -10 -3
-22 -1 -25 4 -3 5 8 9 25 9 21 0 32 6 36 21 6 19 13 21 48 16 27 -4 36 -2 26
4 -7 5 -59 9 -114 9 -65 0 -95 -4 -85 -10 8 -5 31 -6 51 -4 21 3 40 1 44 -5 3
-7 -2 -11 -14 -11 -11 0 -24 -7 -29 -16 -8 -15 -86 -23 -99 -10 -4 3 3 6 15 6
12 0 22 5 22 10 0 6 -4 10 -10 10 -5 0 -7 6 -4 14 4 10 -2 12 -23 8 -24 -5
-25 -6 -8 -13 18 -7 18 -8 2 -8 -10 -1 -20 -8 -24 -17 -5 -13 -7 -13 -14 -2
-7 10 -9 10 -9 1 0 -7 -7 -13 -15 -13 -8 0 -15 -4 -15 -9 0 -4 -10 -6 -23 -4
-13 3 -39 -2 -59 -10 -31 -13 -36 -13 -45 2 -6 9 -14 13 -18 9 -4 -4 -2 -14 5
-23 8 -9 8 -15 2 -15 -6 0 -14 5 -17 10 -3 6 -28 10 -55 10 -27 0 -52 5 -55
11 -4 6 -19 7 -36 4 -18 -4 -29 -2 -29 4 0 12 -32 2 -42 -13 -5 -7 -8 -5 -8 4
0 13 -1 13 -10 0 -6 -10 -10 -11 -10 -2 0 6 -11 12 -24 12 -14 0 -28 5 -31 10
-4 6 -10 8 -14 6 -4 -3 -8 7 -9 21 -3 36 -5 36 -56 29 -39 -6 -45 -10 -48 -34
-2 -17 -9 -27 -18 -26 -39 2 -100 17 -100 24 0 9 33 19 70 21 114 9 -325 17
-882 18 -694 1 -776 -2 -758 -24 16 -19 -14 -38 -73 -46 -63 -8 -108 10 -100
40 7 27 -18 29 -424 30 -347 1 -433 -3 -433 -21 0 -5 5 -6 10 -3 18 11 11 -3
-17 -34 -24 -25 -34 -29 -76 -28 -37 2 -46 -1 -42 -12 4 -10 2 -11 -7 -4 -16
13 -78 22 -78 13 0 -4 -11 -5 -25 -2 -16 3 -25 0 -25 -8 0 -9 -3 -10 -13 -1
-8 6 -17 8 -20 4 -4 -3 -7 -2 -7 4 0 6 -20 7 -52 3 -29 -4 -62 -4 -73 -1 -11
4 -40 6 -65 5 -25 -1 -49 1 -55 4 -5 3 -25 7 -45 9 -90 7 -102 14 -76 42 16
18 16 19 -8 25 -31 8 -2608 7 -2823 -1 -107 -4 -160 -9 -156 -16 4 -6 -2 -8
-15 -5 -14 4 -22 0 -25 -13 -3 -11 -11 -19 -19 -18 -10 0 -10 2 0 6 6 2 12 14
11 26 0 12 -3 16 -6 10 -2 -7 -11 -13 -18 -13 -7 0 -16 6 -18 13 -3 6 -6 3 -6
-8 -1 -11 -6 -27 -12 -35 -8 -12 -9 -9 -4 10 5 24 5 24 -7 5 -10 -16 -24 -20
-68 -20 -39 0 -57 4 -62 15 -5 12 -7 10 -8 -5 l-1 -20 -9 20 c-7 17 -9 17 -9
3 -1 -14 -10 -18 -36 -18 -31 0 -35 3 -35 25 0 17 6 25 18 26 9 1 -3 5 -28 10
-25 4 -571 8 -1214 8 -1117 0 -1168 0 -1153 -17z m7210 -39 c-7 -2 -19 -2 -25
0 -7 3 -2 5 12 5 14 0 19 -2 13 -5z m1917 -3 c0 -5 -2 -10 -4 -10 -3 0 -8 5
-11 10 -3 6 -1 10 4 10 6 0 11 -4 11 -10z m1080 -64 c0 -11 -19 -15 -25 -6 -3
5 1 10 9 10 9 0 16 -2 16 -4z m-7120 -3083 c0 -12 6 -13 23 -7 12 4 148 10
303 11 268 4 284 3 339 -18 34 -13 59 -28 62 -39 4 -16 39 -39 55 -36 4 0 20
-16 35 -37 16 -20 42 -46 58 -57 17 -11 26 -20 22 -20 -9 0 42 -71 59 -82 37
-24 342 -418 389 -503 16 -28 54 -93 85 -145 31 -52 80 -136 109 -187 l52 -91
-25 -49 c-13 -27 -32 -55 -40 -63 -9 -7 -14 -21 -11 -30 3 -9 -2 -23 -10 -30
-13 -11 -15 -10 -9 6 5 15 3 14 -10 -4 -10 -12 -15 -30 -12 -40 5 -15 -30 -96
-73 -172 -10 -17 -26 -56 -35 -83 -8 -25 -25 -12 -20 16 3 16 1 15 -7 -5 -6
-16 -14 -28 -18 -28 -13 0 -38 33 -70 95 -18 33 -40 73 -49 89 -9 16 -33 58
-53 92 -20 35 -39 60 -43 57 -4 -4 -4 1 0 11 6 15 4 17 -6 11 -9 -6 -11 -4 -6
4 5 7 1 20 -7 29 -8 9 -25 37 -37 62 -13 25 -32 57 -44 71 -11 15 -37 53 -56
85 -45 75 -140 215 -157 232 -7 8 -20 27 -28 43 -9 17 -24 29 -35 29 -13 0
-18 6 -15 20 2 12 -4 24 -16 31 -12 6 -18 17 -15 25 3 8 -5 21 -19 30 -13 9
-27 24 -30 35 -7 21 -225 249 -225 235 0 -5 -9 3 -21 18 -11 14 -29 26 -40 26
-17 0 -18 -3 -7 -20 7 -11 18 -20 25 -20 7 0 12 -3 11 -7 -2 -5 0 -8 3 -8 15
0 49 -39 49 -56 0 -20 49 -71 62 -63 4 3 5 -2 2 -10 -11 -28 -47 -16 -58 19
-7 25 -48 53 -54 36 -2 -6 -8 -8 -14 -5 -6 4 -6 9 3 14 9 6 4 15 -17 34 -17
15 -22 23 -11 20 9 -3 17 -2 17 3 0 5 -24 10 -54 10 -49 0 -57 4 -97 43 -24
23 -54 46 -66 51 -26 10 -31 29 -8 29 8 0 15 9 15 20 0 31 -27 23 -48 -15 -6
-11 -12 -14 -12 -7 0 6 -10 12 -22 13 -13 0 -17 3 -10 6 6 2 9 10 6 16 -5 8
-2 8 7 0 19 -18 25 -16 26 9 1 14 -1 18 -6 10 -5 -9 -12 -8 -27 6 -10 10 -27
21 -36 25 -10 3 -18 12 -18 19 0 10 2 10 9 0 5 -8 17 -11 32 -7 17 4 31 0 46
-15 12 -11 31 -21 43 -23 11 -2 26 -9 32 -15 7 -7 20 -12 31 -12 10 0 15 -4
12 -10 -3 -5 1 -10 10 -10 9 0 28 -11 43 -25 35 -33 48 -32 19 1 -56 65 -228
159 -341 188 -15 4 -27 14 -27 24 -1 16 -2 16 -6 -1 -3 -10 -9 -14 -16 -10 -7
4 -6 -1 2 -10 17 -22 8 -32 -16 -18 -10 6 -13 11 -8 11 6 0 4 4 -4 9 -8 5 -10
14 -5 22 4 8 9 20 11 29 14 79 13 78 49 76 19 -1 34 2 34 5 0 4 9 5 20 2 11
-3 20 -12 20 -20z m-426 -31 c49 -17 94 -28 100 -25 6 4 4 -2 -4 -12 -14 -17
-13 -18 3 -12 10 4 16 3 13 -1 -3 -5 4 -16 15 -25 32 -28 10 -51 -66 -72 -139
-37 -298 -212 -340 -375 -8 -32 -15 -69 -15 -83 l0 -25 153 -4 c113 -3 162 -9
191 -22 22 -9 46 -14 53 -11 8 2 12 1 9 -4 -7 -11 41 -24 54 -16 6 4 10 2 10
-3 0 -6 10 -12 23 -16 12 -3 32 -14 44 -26 12 -11 29 -20 38 -20 8 0 15 -5 15
-11 0 -6 21 -34 47 -63 25 -28 62 -75 82 -105 71 -106 122 -186 130 -207 5
-11 28 -49 50 -84 23 -35 41 -69 41 -76 0 -7 6 -19 14 -27 8 -7 28 -40 45 -73
18 -32 41 -75 53 -94 11 -19 39 -66 61 -105 22 -38 51 -88 64 -110 104 -173
158 -267 179 -310 50 -100 102 -189 120 -202 11 -8 18 -16 17 -18 -1 -3 3 -18
8 -34 8 -21 15 -28 26 -24 11 4 14 2 9 -5 -8 -13 26 -84 40 -83 8 1 10 -7 13
-53 1 -12 6 -16 17 -12 8 3 13 2 10 -3 -6 -10 48 -114 55 -106 3 2 11 -11 18
-30 9 -26 16 -32 29 -28 15 6 15 4 4 -9 -11 -14 -11 -22 3 -47 17 -34 35 -41
35 -13 0 14 4 12 20 -8 18 -23 20 -23 20 -5 0 17 2 17 10 5 8 -12 10 -11 10 8
0 35 33 89 53 86 11 -1 17 4 17 16 0 10 5 22 10 25 6 3 19 26 30 51 11 24 27
44 35 44 8 0 15 7 15 15 0 8 5 15 10 15 13 0 32 47 32 78 1 24 24 42 57 42 21
0 37 31 32 63 -4 25 19 52 30 35 12 -19 18 -7 25 48 3 27 8 56 11 64 3 8 8 23
9 32 2 9 15 33 29 54 14 20 25 41 25 45 0 5 10 9 23 9 18 0 19 2 7 10 -8 5
-12 10 -7 11 4 1 10 2 15 3 25 5 72 43 77 63 3 13 10 23 15 23 6 0 10 10 10
22 0 12 3 18 7 15 7 -8 33 38 33 59 0 7 5 16 12 20 7 4 8 3 4 -4 -4 -8 -2 -10
8 -6 9 3 12 12 9 22 -4 9 -3 14 2 10 10 -9 37 11 30 22 -9 15 23 31 49 24 25
-6 34 -23 19 -38 -4 -3 -8 -17 -10 -29 -2 -12 -8 -23 -13 -25 -6 -2 -10 -11
-10 -20 0 -9 -9 -25 -19 -36 -22 -24 -54 -96 -42 -96 4 0 13 11 19 25 6 14 18
25 27 25 8 0 15 9 15 20 0 12 7 20 16 20 9 0 14 6 11 14 -3 7 7 26 21 42 38
40 72 92 72 109 0 8 4 15 9 15 8 0 91 115 91 127 0 4 21 33 46 65 25 33 44 62
40 65 -3 3 11 25 32 48 20 23 57 75 82 116 25 40 53 82 63 91 9 10 12 18 6 18
-5 0 -7 5 -3 11 4 7 0 9 -14 5 -11 -4 -30 -9 -42 -11 -18 -3 -20 -2 -10 10 6
7 10 19 9 27 -1 7 1 35 6 61 6 37 13 51 31 59 13 6 24 20 24 30 0 10 9 22 21
26 11 5 20 11 20 15 -1 4 2 19 5 33 5 19 9 22 15 12 7 -11 9 -10 9 1 0 8 3 11
6 8 4 -4 20 3 35 14 24 17 29 28 30 62 0 23 3 36 6 30 10 -26 63 -3 63 27 0 6
6 10 13 7 12 -4 11 -37 -2 -47 -6 -5 -31 -57 -31 -65 0 -3 7 -5 15 -5 8 0 27
19 42 42 16 23 34 49 41 58 7 8 37 52 67 97 29 45 67 100 84 122 17 21 31 43
31 48 0 5 8 18 18 29 17 20 123 177 137 204 5 8 -3 4 -17 -10 -13 -14 -23 -28
-21 -31 1 -3 -15 -26 -37 -50 -22 -24 -40 -50 -40 -56 0 -7 -4 -13 -10 -13 -5
0 -10 -7 -10 -15 0 -9 -7 -18 -15 -21 -8 -4 -15 -15 -15 -25 0 -10 -4 -18 -8
-16 -11 3 -92 -84 -87 -93 2 -4 -2 -7 -10 -7 -7 0 -19 11 -26 25 -12 21 -11
26 4 37 19 14 23 35 6 35 -8 0 -7 5 2 16 12 14 14 14 20 -3 7 -15 8 -16 8 -1
1 9 -6 24 -15 32 -9 10 -11 16 -4 16 6 0 18 7 27 16 14 14 14 16 -3 29 -15 11
-16 15 -4 16 37 3 36 3 84 46 7 6 23 9 35 6 20 -5 27 5 21 32 -1 5 2 7 6 2 9
-9 55 33 48 44 -3 5 3 6 12 2 12 -4 15 -3 10 5 -4 7 -1 12 7 12 7 0 30 18 51
40 20 22 33 40 29 40 -4 0 7 9 25 20 53 32 56 23 7 -25 -25 -25 -45 -48 -45
-52 0 -8 47 33 75 65 20 22 44 37 135 84 45 23 47 23 440 23 217 0 403 -3 412
-7 17 -7 16 -10 -5 -42 -12 -19 -42 -67 -67 -107 -50 -79 -232 -359 -280 -429
-16 -25 -41 -61 -54 -80 -14 -19 -46 -69 -72 -110 -26 -41 -72 -113 -103 -158
-31 -46 -72 -109 -92 -141 -19 -31 -53 -81 -75 -111 -22 -30 -80 -116 -128
-190 -49 -74 -98 -148 -110 -165 -11 -16 -46 -66 -76 -111 -30 -44 -70 -103
-89 -130 -40 -57 -389 -576 -437 -649 -69 -104 -141 -209 -181 -265 -24 -32
-43 -60 -43 -64 0 -3 -20 -36 -45 -73 -42 -63 -63 -93 -117 -167 -12 -16 -45
-65 -74 -110 -29 -44 -63 -94 -76 -111 -13 -16 -48 -68 -77 -115 -30 -47 -62
-97 -72 -112 -11 -15 -16 -35 -13 -45 4 -13 3 -14 -3 -5 -7 10 -26 -10 -69
-73 -32 -48 -65 -95 -73 -106 -7 -11 -15 -40 -18 -66 -4 -49 -8 -61 -20 -50
-3 4 -1 19 6 33 19 43 7 37 -32 -16 -46 -62 -69 -77 -135 -90 -41 -7 -62 -6
-97 6 -33 11 -50 12 -64 4 -25 -13 -41 -13 -41 0 0 6 9 10 21 10 19 0 19 1 4
16 -9 9 -25 14 -35 11 -11 -3 -18 -1 -14 4 3 5 -18 9 -45 9 -28 0 -51 -4 -51
-10 0 -5 -8 -10 -17 -10 -10 0 -37 -13 -61 -29 -34 -22 -40 -30 -27 -35 15 -6
15 -9 -4 -42 -12 -19 -19 -40 -16 -44 3 -5 -3 -15 -15 -22 -24 -15 -28 -43 -4
-34 8 3 12 2 9 -4 -3 -6 1 -10 9 -10 8 0 18 -4 21 -10 3 -6 -1 -7 -9 -4 -9 3
-16 1 -16 -5 0 -15 -37 -14 -43 2 -3 7 -6 5 -6 -5 -1 -10 -2 -18 -4 -18 -1 0
-16 -4 -33 -9 -24 -7 -31 -6 -31 5 0 8 4 14 9 14 4 0 8 12 8 26 0 23 -2 24
-15 10 -8 -8 -15 -22 -15 -31 0 -13 -3 -13 -13 -3 -8 7 -12 20 -9 30 2 10 -1
18 -7 18 -6 0 -11 -4 -11 -9 0 -18 -39 2 -46 23 -4 11 -12 24 -18 29 -8 5 -6
10 4 17 12 8 12 10 1 10 -11 0 -11 3 0 17 8 9 12 18 9 21 -3 3 7 6 23 8 28 3
34 -5 16 -23 -7 -7 -2 -10 18 -7 15 2 20 1 11 -2 -26 -8 -22 -17 13 -38 34
-20 49 -15 28 11 -12 15 -12 16 1 8 12 -6 12 -5 3 5 -6 7 -9 19 -6 27 3 8 -3
27 -14 42 -11 14 -30 46 -42 69 -21 41 -36 58 -24 25 4 -11 3 -14 -5 -9 -7 4
-12 18 -12 32 0 13 -4 24 -8 24 -4 0 -14 16 -21 35 -21 58 -153 262 -137 213
3 -12 1 -15 -10 -11 -21 8 -17 -14 6 -40 18 -19 22 -20 31 -7 8 12 9 11 5 -5
-6 -23 7 -50 20 -42 5 3 9 -11 9 -30 0 -30 -3 -34 -22 -30 -15 3 -20 0 -16
-10 3 -8 -3 -13 -17 -13 -15 0 -20 4 -17 15 4 8 2 17 -3 20 -17 10 -11 -37 7
-57 22 -25 40 -23 47 6 7 27 36 43 47 25 4 -7 13 -8 20 -4 8 5 5 -1 -5 -14
-19 -21 -19 -22 2 -37 12 -8 22 -20 22 -25 0 -5 9 -20 20 -32 11 -12 18 -27
15 -35 -2 -7 -1 -11 4 -8 13 9 29 -16 26 -43 -1 -19 -8 -25 -33 -27 -26 -3
-30 -1 -26 14 4 11 3 13 -3 5 -11 -16 -55 -25 -70 -15 -7 4 -15 24 -19 42 -4
28 -3 32 6 18 12 -20 40 -24 40 -7 0 7 -8 18 -17 26 -17 14 -17 14 0 9 22 -7
22 10 0 19 -35 14 -73 15 -73 1 0 -9 -11 -12 -37 -9 -45 5 -56 14 -47 36 9 24
17 21 36 -10 10 -16 18 -22 18 -15 0 7 5 10 10 7 6 -3 10 -1 10 5 0 7 -6 10
-14 7 -29 -11 -78 86 -69 138 6 39 32 49 34 13 l2 -23 4 23 c3 16 -3 29 -21
43 -13 11 -28 28 -31 39 -3 10 -16 22 -27 26 -20 6 -20 8 -5 19 9 7 17 18 17
25 0 7 7 10 17 6 14 -6 12 -2 -5 17 -12 13 -19 27 -15 32 5 4 3 5 -4 1 -17 -9
-28 14 -12 25 10 6 4 9 -17 9 -30 0 -51 20 -45 44 1 5 -4 13 -11 17 -11 7 -11
9 0 9 8 0 19 -13 25 -30 6 -16 15 -30 19 -30 11 0 10 8 -3 32 -9 16 -8 23 2
29 11 7 10 9 -3 9 -12 0 -18 7 -17 23 0 12 3 16 6 9 2 -6 8 -10 13 -7 4 3 10
-5 14 -18 3 -12 15 -28 27 -35 11 -8 18 -9 14 -3 -3 6 -1 11 4 11 6 0 11 -3
11 -7 0 -5 10 -19 21 -33 l20 -25 -20 42 c-12 23 -25 44 -30 47 -5 4 -22 32
-38 63 -15 31 -36 65 -45 75 -10 10 -18 22 -18 28 0 5 -8 23 -19 40 -15 25
-20 28 -25 15 -3 -9 -2 -13 4 -10 10 6 13 -5 11 -40 -1 -15 0 -17 7 -7 7 11
11 10 16 -3 3 -10 1 -24 -5 -31 -6 -7 -7 -19 -3 -25 4 -8 3 -9 -4 -5 -7 4 -12
1 -12 -6 0 -7 -8 -2 -18 12 -17 26 -64 31 -61 7 1 -7 -1 -20 -4 -30 -4 -9 -9
-24 -12 -32 -2 -8 -10 -15 -17 -14 -10 0 -10 2 0 6 6 2 12 9 12 15 0 6 -6 8
-14 5 -10 -4 -16 2 -18 16 -2 15 -10 22 -24 21 -14 0 -20 4 -17 13 3 7 1 13
-5 13 -6 0 -12 -5 -14 -12 -3 -7 -25 -13 -52 -14 -51 -3 -96 -26 -96 -49 0 -8
-6 -15 -14 -15 -8 0 -16 -7 -18 -16 -3 -19 -58 -29 -58 -12 0 6 -7 5 -17 -4
-10 -8 -25 -17 -34 -21 -11 -3 -15 -15 -13 -39 3 -27 2 -25 -7 10 -6 23 -15
42 -20 42 -6 0 -7 -9 -4 -20 3 -11 4 -20 1 -20 -11 0 -51 25 -63 40 -20 24
-15 31 20 27 17 -2 25 -2 15 0 -9 2 -19 16 -23 31 -4 16 -9 22 -14 14 -9 -15
-51 -4 -51 14 0 8 6 14 13 15 10 0 10 2 0 6 -21 8 -15 31 10 39 12 4 33 15 46
25 13 11 32 19 41 19 10 0 49 14 86 30 37 17 74 28 81 26 7 -3 13 -1 13 4 0 6
4 10 8 10 5 0 5 -25 0 -56 -10 -66 -8 -77 11 -64 12 7 12 11 2 24 -12 14 -10
16 11 16 21 0 25 -4 20 -25 -2 -14 0 -25 4 -25 5 0 10 14 11 30 2 22 -2 30
-15 31 -16 1 -16 2 0 6 21 5 21 53 1 53 -7 0 -13 5 -13 10 0 6 3 10 7 10 12 0
43 -33 43 -47 0 -7 6 -13 14 -13 8 0 17 -4 20 -9 3 -4 -6 -6 -19 -3 -15 2 -25
0 -25 -7 0 -6 11 -11 25 -11 14 0 34 -9 45 -20 27 -27 30 -25 30 10 0 22 4 28
15 24 10 -4 13 1 12 21 -1 20 3 28 17 31 35 5 37 20 6 58 -16 21 -27 43 -24
48 7 11 -14 38 -30 38 -6 0 -3 -7 7 -14 22 -17 22 -25 -2 -19 -18 5 -31 27
-46 80 -5 19 -3 21 27 17 26 -3 29 -2 13 5 -11 5 -14 10 -7 10 7 1 11 5 8 10
-4 5 -2 11 4 13 5 1 -4 27 -21 56 -26 46 -34 53 -57 50 -20 -2 -27 -8 -25 -23
1 -17 -1 -17 -18 5 -11 14 -18 19 -17 11 7 -33 -19 -17 -37 24 -11 25 -24 45
-28 45 -5 0 -5 5 -2 10 8 13 -8 13 -21 0 -8 -8 -15 -6 -24 5 -8 10 -9 15 -1
15 6 0 11 5 11 11 0 5 -4 7 -10 4 -6 -3 -7 1 -4 9 3 9 11 13 17 9 6 -3 7 -1 3
6 -4 6 -12 9 -17 6 -5 -4 -9 -4 -9 -1 0 2 -3 12 -7 22 -4 12 -3 15 5 10 14 -8
15 -5 6 18 -9 23 -24 19 -25 -6 -1 -21 -2 -21 -6 -3 -9 44 -14 50 -22 36 -6
-9 -11 -2 -15 23 -4 22 -18 44 -37 59 -28 22 -29 25 -15 40 9 9 12 18 7 21 -5
4 -11 1 -13 -5 -2 -7 -10 -4 -18 7 -9 10 -10 15 -3 10 9 -5 11 -2 7 8 -6 16 5
21 35 17 7 -2 10 2 6 8 -9 16 -25 13 -49 -6 -12 -10 -18 -14 -13 -9 4 5 0 17
-8 26 -14 16 -14 19 0 34 15 15 15 16 0 16 -12 0 -15 6 -10 19 3 11 1 22 -5
26 -5 3 -10 17 -10 30 0 13 -4 27 -10 30 -13 8 -13 35 0 35 5 0 7 -7 4 -15 -8
-19 0 -19 20 1 14 14 14 17 -1 38 -10 13 -24 21 -31 19 -9 -4 -10 -9 -1 -19 7
-9 8 -14 1 -14 -5 0 -12 7 -16 15 -3 8 -12 15 -21 15 -10 0 -15 7 -13 18 2 9
-2 16 -9 15 -16 -4 -33 26 -33 57 0 6 -9 19 -19 29 -19 19 -19 19 0 24 10 3
17 1 13 -4 -3 -5 2 -6 10 -3 11 4 16 0 16 -11 0 -9 5 -13 10 -10 6 4 3 15 -7
29 -14 19 -23 22 -44 16 -25 -8 -27 -6 -23 20 4 22 0 30 -16 35 -11 3 -20 10
-20 14 0 5 -14 23 -32 40 -28 27 -30 33 -20 55 9 19 8 28 -1 38 -7 8 -13 20
-15 28 -2 8 -10 20 -18 27 -13 10 -13 12 5 18 21 6 30 35 10 35 -5 0 -8 4 -5
9 8 13 -70 136 -86 134 -16 -3 -53 72 -57 117 -1 13 -3 13 -12 0 -9 -13 -10
-12 -5 3 7 23 -3 49 -17 40 -6 -4 -7 -1 -3 6 5 7 1 20 -7 29 -8 9 -29 44 -46
77 -76 143 -151 269 -151 254 0 -9 -7 -19 -15 -23 -8 -3 -14 0 -12 7 1 7 -8
12 -20 11 -12 0 -20 3 -17 8 3 4 -1 8 -9 8 -10 0 -13 8 -9 26 5 25 3 26 -24
20 -21 -5 -25 -4 -14 3 12 8 12 13 2 23 -17 17 -15 25 8 31 11 3 20 10 20 16
0 6 -6 8 -14 5 -11 -4 -13 0 -9 15 6 24 -15 93 -27 86 -5 -3 -12 0 -16 6 -5 8
-3 9 6 4 9 -6 10 -2 5 16 -4 13 -11 26 -15 29 -4 3 -19 27 -34 54 -39 70 -59
95 -76 96 -13 0 -13 1 0 10 14 9 12 12 -6 9 -4 0 -11 5 -16 13 -6 9 -7 6 -3
-9 11 -38 -27 -28 -66 17 -22 26 -43 40 -59 40 -18 0 -21 3 -11 9 9 6 10 11 2
15 -6 4 -15 5 -20 2 -4 -3 -16 3 -26 14 -11 13 -14 20 -6 20 7 0 9 5 6 10 -4
6 -9 8 -13 6 -10 -6 -47 23 -39 30 8 8 -11 34 -25 34 -5 0 -6 -6 -2 -12 4 -7
5 -11 1 -8 -3 3 -5 9 -4 13 2 9 -91 57 -110 57 -7 0 -13 7 -13 16 0 11 6 15
20 11 14 -4 20 0 20 11 0 32 -168 69 -186 41 -7 -12 -24 6 -24 26 0 6 5 3 10
-5 7 -11 9 -4 9 25 -1 27 -3 34 -7 20 -7 -20 -42 -31 -42 -14 0 5 -10 13 -22
18 l-23 8 25 8 c14 4 33 15 44 24 22 20 251 26 886 25 l415 0 89 -32z m5926
29 c48 -3 51 -4 25 -11 -21 -5 -4 -8 58 -9 105 -1 124 -10 119 -57 -4 -36 -2
-35 -105 -49 -60 -8 -127 -26 -133 -36 -3 -5 -14 -9 -24 -9 -11 0 -24 -9 -31
-21 -7 -14 -17 -19 -30 -16 -13 4 -38 -13 -85 -59 -37 -35 -63 -64 -59 -64 4
0 -4 -11 -18 -24 -15 -14 -28 -30 -29 -37 -2 -7 -13 -24 -25 -38 -13 -15 -18
-28 -12 -31 5 -4 -2 -18 -17 -33 -15 -15 -28 -39 -30 -53 -1 -15 -7 -31 -13
-37 -6 -6 -11 -24 -11 -39 0 -15 -4 -28 -10 -28 -5 0 -10 -6 -10 -14 0 -8 -11
-28 -26 -45 -15 -18 -31 -56 -39 -93 -7 -35 -14 -56 -14 -48 -1 9 -10 1 -22
-17 -12 -18 -24 -33 -28 -33 -3 0 -12 -14 -19 -30 -8 -17 -17 -28 -22 -25 -9
6 -80 -102 -80 -122 0 -7 -4 -13 -8 -13 -10 0 -61 -108 -68 -144 -5 -28 -34
-80 -34 -61 0 5 -7 -1 -16 -13 -9 -13 -13 -30 -10 -38 3 -8 2 -13 -3 -10 -11
7 -33 -18 -24 -27 3 -4 2 -7 -4 -7 -6 0 -9 -8 -6 -18 2 -10 -3 -24 -11 -31 -9
-8 -16 -10 -16 -5 0 10 -29 -28 -30 -40 0 -5 7 -3 15 4 25 21 28 5 6 -38 -23
-45 -40 -60 -50 -44 -4 6 -6 -17 -5 -52 1 -35 4 -68 8 -75 4 -6 3 -11 -3 -11
-5 0 -11 6 -13 12 -6 17 -41 -18 -43 -43 -1 -10 -12 -29 -26 -41 -13 -13 -32
-34 -41 -48 -14 -19 -16 -20 -11 -5 4 14 3 17 -4 10 -6 -5 -14 -21 -18 -34 -5
-18 -4 -22 5 -16 9 5 11 4 6 -4 -4 -6 -11 -9 -16 -6 -15 9 -42 -42 -35 -64 8
-26 -4 -49 -15 -31 -11 18 -43 -46 -35 -70 7 -22 -10 -28 -19 -7 -3 6 -4 0 -1
-15 4 -21 1 -28 -10 -28 -10 0 -15 -7 -13 -19 2 -10 -10 -33 -25 -51 -23 -26
-56 -85 -62 -110 -5 -25 -18 -50 -25 -50 -5 0 -35 -48 -67 -107 -32 -60 -62
-115 -68 -124 -29 -47 -55 -99 -48 -99 3 0 -4 -11 -17 -25 -13 -14 -20 -25
-16 -25 4 0 0 -7 -8 -16 -19 -18 -21 -38 -3 -29 6 4 2 -2 -10 -12 -13 -10 -27
-32 -32 -49 -8 -29 -8 -30 27 -33 20 -1 44 -8 53 -16 8 -8 22 -15 29 -15 7 0
10 -3 7 -7 -11 -10 91 -73 119 -73 8 0 22 -7 31 -15 8 -8 19 -12 25 -9 6 4 16
1 22 -7 16 -21 63 -42 75 -35 6 4 11 2 11 -4 0 -7 6 -10 14 -7 8 3 16 1 18 -4
2 -5 13 -1 25 11 12 11 26 20 32 20 5 0 7 10 3 22 -4 18 -2 20 16 16 13 -4 20
-2 16 3 -9 15 16 39 41 39 12 0 25 3 29 8 13 12 31 8 37 -8 8 -19 25 101 40
275 13 158 6 378 -12 384 -8 2 -7 6 2 13 8 5 10 11 4 14 -5 2 -9 28 -8 56 2
36 0 47 -6 33 -8 -19 -8 -19 -18 0 -8 15 -7 23 2 32 7 6 16 9 19 6 6 -6 8 4
11 49 1 19 50 78 65 78 18 0 61 -102 81 -192 11 -50 24 -99 29 -109 6 -10 10
-29 10 -43 0 -14 5 -26 11 -26 8 0 9 -11 5 -32 -4 -24 -3 -29 4 -18 8 12 10 9
10 -12 0 -15 5 -39 11 -55 16 -44 12 -502 -6 -670 -24 -219 -81 -503 -115
-578 -6 -11 -21 -58 -36 -105 -14 -47 -30 -89 -34 -95 -4 -5 -20 -44 -35 -85
-15 -41 -33 -82 -40 -90 -7 -8 -24 -40 -39 -70 -14 -30 -42 -80 -61 -110 -19
-30 -46 -77 -61 -105 -14 -27 -34 -59 -44 -70 -19 -20 -35 -42 -99 -132 -121
-169 -427 -482 -561 -573 -19 -13 -37 -27 -40 -30 -3 -4 -45 -33 -95 -65 -49
-32 -116 -76 -149 -97 -32 -21 -93 -54 -135 -74 -42 -20 -96 -47 -121 -59 -25
-12 -70 -30 -100 -40 -30 -10 -59 -21 -65 -25 -20 -16 -234 -83 -355 -112
-337 -81 -573 -102 -885 -79 -191 14 -249 23 -420 62 -327 77 -649 220 -972
434 -34 23 -92 68 -138 107 -18 15 -35 24 -39 20 -4 -4 -6 -1 -4 7 1 7 -3 16
-9 18 -17 6 -17 -19 0 -36 10 -11 9 -12 -2 -6 -11 6 -13 3 -8 -14 l5 -22 -33
21 c-44 27 -52 25 -18 -5 l28 -24 -32 11 c-18 7 -33 18 -33 26 0 7 -4 11 -9 7
-13 -7 -61 15 -61 29 0 6 -13 17 -30 24 -16 8 -30 18 -30 24 0 6 -25 35 -56
66 -33 33 -53 60 -50 69 3 8 1 11 -4 8 -6 -4 -17 1 -26 9 -8 9 -13 16 -9 16 3
0 3 6 -2 13 -4 6 -6 20 -5 30 2 9 -2 17 -7 17 -6 0 -11 6 -11 14 0 8 -10 22
-22 30 -15 11 -18 16 -8 16 11 0 12 2 3 8 -7 4 -16 19 -21 32 -6 17 -17 25
-33 25 -20 0 -23 4 -21 28 2 15 -1 27 -6 27 -5 0 -15 11 -22 25 -8 15 -22 25
-34 24 -20 0 -20 -1 1 -9 28 -12 29 -19 3 -17 -24 2 -44 57 -26 69 7 5 7 8 1
8 -6 0 -11 12 -12 28 0 15 1 19 4 9 3 -14 8 -15 18 -7 9 8 14 6 19 -5 3 -10
11 -13 18 -9 7 4 10 3 5 -1 -4 -5 11 -28 33 -50 30 -30 42 -51 42 -73 1 -19 5
-29 11 -25 6 4 8 0 4 -11 -4 -10 -1 -19 9 -23 8 -3 13 -12 10 -19 -4 -9 2 -13
17 -11 16 1 21 -3 19 -15 -2 -12 4 -18 18 -18 24 0 27 -20 3 -21 -11 0 -13 -3
-5 -6 6 -2 12 -12 12 -21 0 -10 3 -13 8 -7 4 7 25 -1 56 -22 33 -22 42 -33 30
-34 -18 0 -17 -1 1 -8 11 -5 23 -7 27 -4 4 2 5 -4 1 -13 -4 -11 -2 -15 4 -11
9 6 46 -36 48 -53 1 -12 24 -44 25 -34 0 5 -6 16 -12 24 -11 12 -10 12 5 1 9
-7 17 -24 17 -38 0 -17 5 -24 18 -22 21 3 74 -18 84 -34 4 -6 10 -8 14 -4 4 4
-47 60 -112 124 -65 65 -144 150 -174 188 -30 39 -61 76 -68 84 -8 8 -25 33
-40 55 -14 23 -31 46 -37 51 -7 6 -38 48 -69 95 -30 47 -65 97 -76 112 -11 14
-20 30 -20 35 0 4 -8 17 -17 28 -13 16 -14 17 -9 3 17 -48 18 -53 5 -33 -7 11
-13 29 -14 40 0 11 -39 99 -86 195 -48 96 -94 200 -104 230 -10 30 -25 69 -33
85 -9 17 -23 59 -33 95 -10 36 -18 56 -19 45 l-1 -20 -9 20 c-5 11 -9 27 -9
35 -1 13 0 13 9 0 16 -24 12 2 -10 64 -11 32 -25 93 -32 137 -7 43 -15 79 -19
79 -4 0 -7 32 -8 71 -1 41 -6 78 -13 87 -10 11 -13 83 -13 284 0 208 -3 268
-12 268 -7 0 -13 9 -13 20 0 11 6 20 14 20 10 0 13 12 10 51 -3 42 -1 50 11
45 16 -6 20 5 30 85 4 35 2 49 -10 59 -18 15 -20 71 -3 89 11 11 10 12 -2 6
-13 -8 -13 -6 -2 7 10 13 11 22 2 37 -6 12 -7 21 -2 21 5 0 6 15 4 33 -3 17
-2 30 1 26 4 -3 8 -20 9 -38 1 -19 10 -37 20 -42 13 -7 16 -5 15 11 -1 11 -7
20 -14 20 -8 0 -13 13 -13 36 0 24 -4 33 -12 28 -7 -4 -8 -3 -4 5 4 6 12 9 17
6 9 -6 19 10 23 39 1 8 5 18 8 22 4 3 4 13 1 22 -4 10 -3 14 2 10 4 -4 15 -2
23 5 9 6 13 7 10 2 -4 -6 0 -18 7 -28 12 -16 13 -16 18 2 3 11 0 22 -7 24 -6
2 0 10 14 17 14 7 29 19 33 26 12 21 54 17 77 -6 31 -31 39 -61 29 -111 -11
-60 -11 -91 1 -84 6 4 10 -8 10 -29 0 -45 -20 -58 -21 -14 -2 55 -8 11 -17
-132 -12 -170 -1 -418 19 -431 12 -7 12 -9 0 -9 -8 0 -11 -6 -6 -17 4 -10 8
-40 10 -68 5 -69 24 -184 34 -204 5 -9 19 -60 32 -114 18 -77 26 -95 34 -84 6
9 29 19 50 23 21 4 54 16 73 27 18 11 44 21 57 22 19 3 24 -2 27 -31 2 -19 1
-34 -3 -34 -4 0 -9 -9 -12 -21 -3 -12 -10 -18 -16 -14 -28 17 -51 14 -52 -8
-6 -94 -8 -119 -11 -122 -9 -9 -47 8 -41 19 3 6 3 8 -2 4 -4 -4 -14 -3 -22 3
-16 14 -17 16 6 -56 25 -79 70 -180 125 -285 24 -47 54 -106 66 -132 12 -26
26 -45 31 -42 5 3 6 -3 2 -12 -5 -13 -3 -15 7 -9 8 5 11 4 7 -2 -6 -10 33 -79
69 -122 40 -47 62 -70 66 -66 2 2 4 -5 5 -16 2 -20 61 -121 75 -127 4 -2 17
-19 28 -38 12 -19 26 -32 31 -28 5 3 8 2 7 -3 -2 -4 12 -27 30 -49 26 -32 38
-40 55 -36 19 5 20 3 9 -10 -10 -13 -6 -21 28 -52 23 -20 45 -34 50 -31 6 4
17 -1 26 -9 14 -15 11 -21 -10 -17 -5 1 -4 -5 3 -13 10 -12 18 -13 32 -6 15 8
17 7 13 -5 -8 -21 16 -47 38 -42 10 3 15 1 12 -5 -7 -11 117 -132 181 -176 21
-15 47 -35 57 -44 10 -10 24 -15 34 -11 12 4 15 3 10 -5 -5 -8 -2 -10 8 -6 9
3 13 11 9 17 -3 6 -1 7 5 3 6 -4 9 -13 5 -21 -3 -9 1 -15 11 -15 9 0 16 -6 16
-12 0 -9 4 -8 10 2 13 21 12 33 -2 27 -8 -3 -14 5 -14 19 -1 13 2 25 7 25 35
5 67 -6 87 -30 8 -9 11 -11 9 -6 -3 6 6 10 18 10 15 0 21 -3 15 -9 -19 -19
-10 -28 22 -24 35 6 88 -8 88 -23 0 -4 7 -6 15 -3 8 4 15 1 15 -6 0 -7 8 -9
21 -5 15 5 19 4 15 -4 -5 -7 4 -11 23 -11 23 0 31 -5 31 -17 0 -13 3 -14 12
-5 9 9 16 8 29 -4 18 -16 159 -55 172 -47 4 2 7 -3 7 -11 0 -9 5 -16 11 -16 6
0 17 -7 25 -15 9 -8 12 -15 7 -15 -5 0 -14 5 -19 10 -7 7 -11 6 -11 -5 0 -9 9
-15 21 -15 17 0 21 -6 21 -32 0 -21 5 -32 13 -31 6 2 12 -1 12 -6 0 -5 -22 -8
-50 -8 -27 1 -45 4 -40 5 6 2 8 7 5 12 -3 4 4 6 15 3 14 -4 20 0 20 10 0 10
-7 15 -20 12 -11 -2 -20 2 -20 8 0 8 -3 9 -8 1 -10 -15 -42 -25 -42 -14 0 6
-17 10 -38 10 -21 0 -44 6 -51 12 -10 11 -12 9 -9 -7 2 -11 7 -18 12 -17 5 2
12 -2 17 -9 4 -7 23 -13 43 -13 19 0 33 -3 30 -7 -6 -11 45 -21 68 -13 12 4
18 2 14 -4 -6 -10 38 -22 83 -22 20 0 23 -2 11 -10 -13 -9 -13 -10 0 -10 8 0
30 4 48 9 37 11 43 5 10 -10 -22 -9 -21 -9 5 -6 15 3 27 1 27 -3 0 -11 195
-33 226 -26 18 5 24 3 19 -5 -8 -13 106 -8 138 6 12 5 17 3 17 -9 0 -13 10
-16 53 -14 35 1 42 2 20 5 -37 5 -45 30 -10 30 46 0 87 15 87 32 0 10 6 26 14
37 11 14 14 15 14 4 -2 -36 3 -61 11 -55 5 3 12 1 16 -5 3 -5 20 -10 37 -10
27 0 29 -2 17 -16 -13 -15 -8 -16 56 -10 39 4 97 11 130 16 33 5 98 14 145 21
47 7 87 15 90 19 3 4 23 12 45 18 l40 11 -35 -1 c-57 0 -67 2 -42 12 13 6 22
19 23 32 1 18 2 19 6 5 4 -14 8 -16 19 -6 8 6 14 20 14 30 0 18 14 23 53 20 9
-1 17 4 17 12 0 10 8 14 25 12 19 -2 25 2 25 16 0 11 7 19 15 19 8 0 15 -4 15
-9 0 -5 11 -4 24 2 13 7 22 15 19 20 -2 4 12 6 31 4 22 -3 36 0 36 7 0 6 5 4
10 -4 8 -12 12 -11 30 8 25 27 34 28 21 4 -9 -16 -6 -18 21 -14 30 5 31 5 12
20 -15 11 -15 13 -2 9 11 -4 22 3 33 19 9 14 20 22 25 19 6 -4 10 1 10 11 0
13 3 14 15 4 17 -14 42 -3 26 13 -7 7 0 19 22 38 31 28 54 38 42 20 -3 -5 0
-13 7 -17 7 -4 10 -3 5 1 -4 5 0 16 9 26 9 10 14 24 11 31 -3 9 8 13 39 13 38
0 43 -3 38 -18 -5 -16 -3 -17 14 -6 12 7 19 16 16 20 -2 4 6 9 18 11 16 2 22
9 21 23 -1 11 0 14 3 8 3 -7 15 -13 27 -12 12 0 16 3 10 6 -10 3 -9 8 2 19 8
8 12 21 8 30 -3 9 0 14 8 12 10 -2 13 6 11 27 -2 29 -2 29 11 8 l12 -23 14 22
c10 15 10 23 3 26 -8 2 -8 7 1 17 7 7 15 11 20 8 4 -2 7 5 7 16 0 12 5 21 10
21 6 0 10 10 10 22 0 17 3 19 12 10 15 -15 32 -16 23 -2 -3 6 1 10 9 10 19 0
22 20 4 21 -10 0 -10 2 0 6 6 2 10 9 6 14 -3 5 -2 9 3 8 14 -4 43 13 43 24 0
13 60 67 74 67 5 0 14 7 21 16 9 13 16 14 33 5 14 -7 23 -8 27 -1 4 6 11 7 17
4 7 -5 8 -2 4 5 -5 7 -13 10 -20 8 -6 -2 -20 -1 -31 4 -17 7 -16 8 8 8 16 1
26 5 22 10 -3 5 0 13 6 17 8 4 9 3 5 -4 -4 -7 -2 -12 3 -12 6 0 11 5 11 11 0
6 7 9 15 5 8 -3 15 -2 15 3 0 5 10 11 21 14 16 4 20 11 16 27 -3 13 0 23 8 26
16 7 37 62 29 76 -8 13 16 39 30 31 6 -4 5 1 -3 10 -16 20 -1 23 18 5 10 -11
11 -10 6 5 -4 10 -2 17 4 17 6 0 11 7 11 15 0 8 -5 15 -10 15 -6 0 -5 8 2 19
7 11 16 17 20 15 4 -3 8 2 8 10 0 25 34 85 48 86 7 0 15 7 18 15 4 8 9 13 14
10 4 -2 5 7 2 20 -2 15 0 25 7 25 6 0 11 9 11 20 0 15 7 20 26 20 23 0 24 1
10 16 -20 19 -20 34 -2 34 8 0 17 14 21 31 4 18 16 34 28 39 18 7 18 9 5 9
-21 1 -25 21 -4 21 7 0 16 9 19 20 3 11 12 20 21 20 9 0 16 7 16 15 0 8 -7 15
-15 15 -8 0 -15 5 -15 10 0 6 7 10 15 10 15 0 19 16 16 53 -1 9 3 17 9 17 6 0
8 4 5 10 -3 6 0 10 7 11 7 0 4 4 -7 9 -11 5 -15 9 -8 9 17 1 44 59 29 64 -8 3
-7 9 3 18 9 9 11 9 7 2 -4 -7 -3 -13 2 -13 6 0 10 10 10 23 0 12 4 57 9 100 7
59 6 80 -3 88 -7 6 -10 17 -7 25 6 17 -9 18 -25 2 -18 -18 -42 -18 -43 0 0 14
-2 13 -9 -3 -8 -18 -9 -18 -10 5 l-1 25 -10 -25 -10 -25 -20 24 c-11 13 -22
21 -26 18 -3 -4 0 -14 8 -23 12 -15 11 -16 -19 -10 -20 5 -32 4 -32 -3 0 -6
-6 -8 -14 -5 -8 3 -17 0 -22 -7 -5 -8 -3 -10 7 -4 12 8 12 6 1 -8 -14 -16 -9
-37 8 -37 5 0 10 8 13 18 3 13 4 12 3 -3 -1 -24 -39 -24 -62 -1 -8 8 -23 18
-34 21 -11 3 -20 13 -20 21 0 17 -21 19 -37 3 -16 -16 -36 0 -31 26 3 13 0 22
-9 22 -7 0 -13 -5 -13 -11 0 -6 -4 -5 -9 3 -5 8 -8 27 -6 42 3 20 -1 30 -15
34 -13 4 -16 12 -13 28 5 22 5 22 -10 2 -18 -22 -21 -36 -9 -34 29 5 36 -2 19
-18 -16 -16 -19 -16 -27 -3 -8 13 -10 12 -10 -3 0 -10 -4 -16 -8 -13 -12 7
-66 -104 -63 -129 1 -15 0 -17 -7 -6 -7 10 -17 -2 -37 -44 -15 -33 -23 -60
-17 -64 5 -3 6 -15 2 -26 -8 -19 -8 -19 -17 4 -9 22 -11 19 -36 -38 -14 -33
-32 -61 -38 -61 -6 0 -8 -7 -5 -16 3 -8 2 -13 -3 -10 -11 7 -33 -43 -25 -56 4
-7 2 -8 -4 -4 -7 4 -12 3 -12 -3 0 -5 -6 -16 -13 -23 -24 -24 -75 -143 -72
-168 1 -14 3 -37 4 -52 1 -21 5 -26 19 -21 15 5 14 4 -2 -9 -17 -14 -17 -15
-2 -21 13 -5 16 -15 12 -37 -2 -17 0 -28 5 -24 5 3 9 -6 9 -20 0 -27 -17 -32
-87 -28 -13 0 -23 -5 -23 -11 0 -7 -4 -6 -10 3 -8 12 -10 11 -10 -7 0 -20 -3
-21 -25 -13 -17 6 -25 6 -25 -1 0 -6 -4 -7 -10 -4 -5 3 -10 0 -10 -8 0 -20
-50 -29 -57 -10 -4 11 -8 10 -19 -4 -10 -14 -13 -15 -14 -4 0 11 -4 9 -15 -5
-14 -19 -14 -19 -15 1 0 17 -2 17 -10 5 -5 -8 -10 -10 -10 -5 0 6 -5 3 -10 -5
-7 -11 -10 -11 -10 -2 0 9 -5 10 -17 4 -29 -14 -109 -14 -132 0 -15 9 -23 10
-32 1 -8 -8 -20 -7 -45 8 -19 10 -52 19 -74 19 -21 0 -42 5 -46 12 -4 6 -3 8
4 4 6 -3 13 -2 17 4 5 8 -18 15 -28 8 -2 -2 -11 3 -21 11 -24 20 -18 72 8 69
10 -2 21 2 23 9 7 20 -42 25 -88 9 -24 -8 -40 -15 -36 -16 13 0 -16 -27 -30
-27 -19 0 -16 15 5 20 15 4 -45 10 -105 11 -12 0 -20 3 -17 7 2 4 -11 12 -29
18 -19 6 -50 27 -71 46 -36 33 -45 31 -43 -9 0 -17 1 -17 12 -2 11 14 14 14
31 -6 10 -12 14 -18 7 -15 -6 4 -14 3 -18 -3 -3 -5 -1 -10 5 -10 6 0 9 -4 5
-9 -3 -5 -1 -13 5 -16 6 -4 9 -3 8 2 -2 4 2 8 7 8 6 0 9 -4 7 -8 -1 -4 3 -7
10 -6 7 2 28 -1 46 -5 25 -6 32 -13 32 -32 0 -32 -16 -30 -29 4 l-11 27 3 -30
c3 -29 1 -31 -27 -29 -17 1 -32 7 -34 13 -2 6 -12 11 -23 11 -10 0 -19 4 -19
9 0 5 -9 13 -20 16 -11 4 -18 11 -15 16 4 5 -4 9 -15 9 -16 0 -20 5 -16 15 3
8 0 15 -7 16 -7 0 -3 4 8 9 11 5 14 9 8 9 -22 2 -14 19 10 23 17 3 13 7 -20
16 -48 14 -48 14 -30 43 10 17 10 23 0 26 -18 7 -16 21 4 25 15 3 15 5 2 18
-22 22 -32 63 -13 56 8 -3 14 1 14 10 0 10 -6 14 -14 11 -10 -4 -12 0 -8 15 3
13 11 18 23 15 12 -3 19 0 19 9 0 8 7 14 16 12 9 -2 18 4 20 12 7 34 22 74 23
60 1 -15 19 10 40 58 6 12 17 22 26 22 8 0 15 6 15 14 0 8 11 23 25 34 14 11
25 30 25 42 0 18 3 20 14 11 11 -9 18 -5 36 24 12 19 20 42 17 49 -3 7 1 26 9
41 8 15 14 35 15 44 0 10 2 11 6 4 2 -7 9 -13 15 -13 6 0 8 7 4 15 -3 8 2 21
10 30 8 8 12 19 9 25 -3 5 1 10 9 10 9 0 16 6 16 13 0 20 40 55 41 36 0 -8 4
-4 9 9 5 12 14 22 20 22 6 0 8 5 5 10 -3 6 1 17 9 26 9 8 16 23 16 32 0 15 2
15 10 2 8 -13 10 -12 10 3 0 10 8 20 18 24 25 9 49 36 44 51 -2 6 8 16 23 22
21 8 25 14 20 32 -6 16 -4 20 7 15 8 -3 21 -1 29 4 12 7 12 9 -1 9 -12 1 -11
4 4 15 10 7 19 25 20 38 1 21 4 24 21 15 15 -7 14 -4 -5 13 -15 13 -24 30 -22
43 2 15 0 17 -6 8 -7 -11 -10 -9 -15 7 -3 12 -12 21 -21 21 -9 0 -16 5 -16 10
0 6 -7 10 -15 10 -8 0 -15 5 -15 11 0 8 -6 7 -17 -2 -11 -10 -14 -10 -9 -1 5
9 -3 12 -29 12 -22 0 -34 4 -30 10 4 7 -2 7 -19 0 -20 -7 -24 -6 -19 5 3 8 0
15 -6 15 -6 0 -11 7 -11 15 0 8 -6 15 -12 15 -9 0 -8 4 2 10 13 8 12 10 -2 10
-17 0 -24 11 -13 22 3 3 29 1 58 -4 28 -5 79 -13 112 -18 33 -5 71 -11 85 -14
14 -3 27 0 32 7 6 9 8 9 8 0 0 -8 13 -13 30 -13 17 0 30 5 30 11 0 6 7 9 15 5
8 -3 15 -2 15 2 0 14 69 40 74 28 3 -6 5 -4 4 4 -1 8 2 23 6 32 4 9 3 25 -3
36 -9 17 -6 18 25 17 19 0 34 3 34 7 0 4 7 8 16 8 8 0 12 5 9 10 -3 6 -1 10 4
10 6 0 11 6 11 14 0 8 7 17 15 20 15 5 42 63 37 79 -1 4 4 7 11 7 8 0 19 18
25 39 7 21 23 46 37 55 14 9 23 21 20 27 -4 5 4 18 17 29 13 11 19 19 15 20
-5 0 -1 10 7 22 14 19 14 23 -2 35 -9 8 -11 12 -4 8 7 -4 12 0 12 9 0 9 9 16
20 16 11 0 20 5 20 11 0 6 11 25 25 41 17 21 22 34 16 45 -6 11 0 24 22 44 17
16 35 39 41 51 13 25 56 56 56 39 0 -6 -7 -11 -15 -11 -8 0 -15 -7 -15 -15 0
-25 18 -17 35 15 8 16 15 31 15 34 0 6 -23 2 -40 -9 -10 -5 -8 -1 3 13 11 11
16 25 13 31 -4 5 -1 13 5 17 7 4 9 3 6 -3 -4 -6 0 -13 8 -17 8 -3 17 -1 20 4
3 4 0 10 -7 12 -9 3 -7 14 5 41 10 20 22 39 27 42 6 4 8 10 6 14 -3 4 1 8 9 8
17 0 20 -23 5 -32 -5 -3 -10 -11 -10 -18 0 -6 7 -1 16 12 16 22 16 26 1 51
-16 26 -16 29 0 41 14 12 16 12 9 0 -6 -9 -4 -12 5 -9 8 3 14 10 14 16 0 5 4
14 9 19 5 5 6 3 2 -4 -4 -8 -1 -13 8 -13 21 0 25 23 7 38 -14 11 -14 13 -1 25
14 11 19 28 22 67 1 20 21 48 33 46 5 0 15 11 22 25 7 14 21 33 32 43 20 18
20 18 8 -13 -6 -17 -15 -31 -20 -31 -4 0 -6 -4 -2 -9 3 -5 -2 -16 -10 -24 -8
-9 -15 -20 -15 -26 0 -5 -11 -27 -25 -47 -14 -20 -25 -42 -25 -48 1 -12 43 54
109 171 24 43 50 88 58 100 7 13 12 24 11 25 -2 2 6 17 18 33 30 43 38 69 19
61 -11 -4 -15 1 -15 18 0 19 4 22 23 19 23 -5 56 21 43 34 -3 3 -6 1 -6 -5 0
-7 -4 -12 -10 -12 -18 0 -10 18 10 25 27 9 52 59 44 89 -6 25 21 75 40 76 5 0
0 -10 -12 -23 -17 -18 -19 -26 -10 -35 9 -9 16 -3 29 26 15 31 15 38 3 40 -18
4 -18 16 1 32 8 7 13 16 10 20 -2 4 4 15 14 24 10 9 17 27 16 41 -2 14 2 23 8
22 7 -1 11 3 10 9 -3 17 44 58 52 45 3 -6 -6 -16 -22 -22 -22 -8 -24 -12 -13
-19 12 -7 12 -12 2 -22 -6 -6 -12 -20 -12 -30 0 -10 -7 -21 -15 -24 -16 -7
-21 -24 -6 -24 5 0 21 26 36 58 15 31 30 59 35 62 7 5 40 65 40 74 0 3 -7 3
-16 -1 -8 -3 -13 -12 -10 -19 6 -17 -10 -28 -19 -13 -4 6 -2 16 4 22 6 6 11
19 11 30 0 11 5 15 11 11 8 -5 8 -1 0 14 -6 11 -11 23 -11 26 0 9 23 2 38 -11
7 -7 18 -13 23 -13 5 0 9 6 10 13 0 6 13 37 29 67 54 103 90 183 90 199 0 13
2 13 9 3 7 -11 9 -10 14 3 4 9 3 14 -3 10 -19 -12 -22 25 -6 59 9 19 30 46 46
60 17 13 30 31 30 39 0 16 44 42 57 34 5 -3 14 -3 20 1 11 7 820 10 923 3z
m167 -7 c-3 -3 -12 -4 -19 -1 -8 3 -5 6 6 6 11 1 17 -2 13 -5z m-7517 -84 c0
-5 -2 -10 -4 -10 -3 0 -8 5 -11 10 -3 6 -1 10 4 10 6 0 11 -4 11 -10z m6250
-120 c-6 -11 -16 -17 -22 -14 -7 5 -5 12 7 21 25 18 28 17 15 -7z m-15 -51
c-4 -5 -14 -9 -23 -9 -14 0 -14 -2 -3 -9 16 -11 6 -31 -16 -31 -12 0 -13 3 -4
13 6 8 8 17 4 21 -4 4 3 9 15 13 12 3 19 10 15 16 -3 6 -1 7 6 3 6 -4 9 -12 6
-17z m-59 -88 c-9 -10 -13 -21 -9 -24 3 -4 1 -7 -5 -7 -18 0 -26 22 -11 31 8
5 10 9 4 9 -5 0 -3 4 5 9 22 15 33 1 16 -18z m-35 -54 c-6 -8 -7 -18 -3 -22 4
-5 1 -5 -6 -1 -10 6 -10 11 -1 22 6 8 14 14 16 14 3 0 0 -6 -6 -13z m-3976
-27 c-3 -5 -12 -10 -18 -10 -7 0 -6 4 3 10 19 12 23 12 15 0z m160 -150 c3 -5
2 -10 -4 -10 -5 0 -13 5 -16 10 -3 6 -2 10 4 10 5 0 13 -4 16 -10z m2088 -101
c-16 -31 -36 -34 -41 -6 -2 10 6 21 20 26 36 15 38 13 21 -20z m-1968 1 c3 -6
-1 -7 -9 -4 -18 7 -21 14 -7 14 6 0 13 -4 16 -10z m26 -38 c-7 -2 -18 1 -23 6
-8 8 -4 9 13 5 13 -4 18 -8 10 -11z m-1671 -166 c0 -3 -4 -8 -10 -11 -5 -3
-10 -1 -10 4 0 6 5 11 10 11 6 0 10 -2 10 -4z m5079 -29 c-7 -15 -17 -23 -26
-20 -10 4 -8 10 9 27 28 27 32 26 17 -7z m-3265 -16 c-6 -6 -24 19 -24 34 1 6
7 1 15 -9 8 -11 12 -22 9 -25z m-4 -36 c7 -9 8 -15 2 -15 -5 0 -12 7 -16 15
-3 8 -4 15 -2 15 2 0 9 -7 16 -15z m40 -55 c0 -5 -4 -10 -10 -10 -5 0 -10 5
-10 10 0 6 5 10 10 10 6 0 10 -4 10 -10z m3150 -42 c0 -6 -6 -5 -15 2 -8 7
-15 14 -15 16 0 2 7 1 15 -2 8 -4 15 -11 15 -16z m-37 -43 c-3 -9 -8 -14 -10
-11 -3 3 -2 9 2 15 9 16 15 13 8 -4z m-43 -81 c0 -8 -5 -12 -10 -9 -6 4 -8 11
-5 16 9 14 15 11 15 -7z m904 1 c-4 -8 -8 -15 -10 -15 -2 0 -4 7 -4 15 0 8 4
15 10 15 5 0 7 -7 4 -15z m-2606 -22 c1 -24 0 -25 -9 -10 -5 9 -7 22 -4 27 9
15 10 13 13 -17z m19 5 c-3 -8 -6 -5 -6 6 -1 11 2 17 5 13 3 -3 4 -12 1 -19z
m-1227 -28 c0 -5 -4 -10 -10 -10 -5 0 -10 5 -10 10 0 6 5 10 10 10 6 0 10 -4
10 -10z m1156 -65 c-6 -31 -19 -55 -27 -50 -5 4 -9 -3 -9 -14 0 -25 -15 -35
-28 -18 -11 13 -10 49 2 77 7 16 65 21 62 5z m-2816 -126 c0 -5 -4 -9 -8 -9
-5 0 -9 7 -9 15 0 8 4 12 9 9 4 -3 8 -9 8 -15z m-22 -43 c12 -3 12 -4 -3 -3
-11 1 -20 9 -21 17 0 8 1 10 3 3 2 -6 12 -14 21 -17z m2731 -4 c-1 -15 -2 -15
-6 1 -2 9 -9 14 -15 11 -7 -4 -8 -2 -4 5 10 15 26 4 25 -17z m-19 -21 c0 -6
-4 -13 -10 -16 -5 -3 -10 1 -10 9 0 9 5 16 10 16 6 0 10 -4 10 -9z m-2680 -21
c0 -5 -2 -10 -4 -10 -3 0 -8 5 -11 10 -3 6 -1 10 4 10 6 0 11 -4 11 -10z m54
-45 c3 -8 13 -15 22 -15 11 0 14 5 9 18 -5 13 -4 14 6 5 9 -9 8 -18 -5 -38
l-17 -26 28 6 c27 5 27 5 5 -6 -19 -10 -26 -9 -45 9 -13 12 -30 22 -38 22 -12
0 -12 2 1 10 12 8 12 10 -5 11 l-20 0 20 9 c29 12 32 12 39 -5z m2526 -33 c0
-13 2 -13 16 4 15 17 15 17 0 -8 -9 -15 -16 -35 -17 -45 0 -11 -3 -13 -6 -5
-2 6 -10 9 -15 6 -7 -5 -8 -2 -3 6 4 7 8 26 7 42 0 15 4 26 9 23 5 -4 9 -14 9
-23z m-2545 -21 c3 -5 1 -12 -5 -16 -5 -3 -10 1 -10 9 0 18 6 21 15 7z m1755
-611 c5 0 7 8 3 18 -5 13 0 11 20 -7 15 -14 27 -32 27 -40 0 -14 -1 -14 -10
-1 -15 23 -12 6 4 -24 13 -26 11 -66 -3 -64 -20 2 -30 -4 -25 -17 4 -8 1 -15
-5 -15 -6 0 -12 8 -12 18 -1 9 -4 4 -8 -13 -5 -25 -11 -30 -36 -31 l-30 -2 29
5 c22 3 26 7 15 14 -10 6 -10 9 -1 9 6 0 12 5 12 10 0 6 -6 10 -12 9 -30 -4
-41 4 -18 11 23 7 23 8 3 9 -12 1 -25 -4 -29 -10 -5 -8 -10 -6 -16 5 -5 9 -7
20 -4 24 3 5 -8 8 -24 7 -19 -1 -30 3 -30 12 0 7 9 13 20 13 21 0 29 33 10 45
-5 3 -10 10 -10 16 0 5 5 9 10 9 6 0 10 -7 10 -15 0 -22 17 -18 23 6 5 18 8
19 27 7 18 -11 23 -10 33 7 10 18 12 18 15 3 2 -10 7 -18 12 -18z m-140 -40
c0 -5 -2 -10 -4 -10 -3 0 -8 5 -11 10 -3 6 -1 10 4 10 6 0 11 -4 11 -10z m30
-70 c0 -5 -4 -10 -10 -10 -5 0 -10 5 -10 10 0 6 5 10 10 10 6 0 10 -4 10 -10z
m49 -29 c2 -1 -2 -8 -9 -16 -7 -8 -16 -12 -21 -9 -5 3 -9 0 -9 -5 0 -6 5 -11
10 -11 18 0 10 -16 -9 -17 -17 -1 -18 2 -9 32 10 30 14 33 47 26z m-1680 -43
c0 -7 -4 -22 -9 -33 -7 -17 -9 -15 -9 13 -1 17 4 32 9 32 6 0 10 -6 9 -12z
m3024 -157 c-65 -102 -118 -171 -122 -160 -2 7 1 15 8 17 6 2 11 11 11 20 0
10 16 34 35 54 19 20 35 39 35 43 0 11 35 54 43 55 5 0 1 -13 -10 -29z m-3023
-71 c0 -11 -4 -20 -10 -20 -5 0 -10 9 -10 20 0 11 5 20 10 20 6 0 10 -9 10
-20z m0 -55 c0 -8 -4 -15 -10 -15 -5 0 -10 7 -10 15 0 8 5 15 10 15 6 0 10 -7
10 -15z m710 -29 c0 -3 -4 -8 -10 -11 -5 -3 -10 -1 -10 4 0 6 5 11 10 11 6 0
10 -2 10 -4z m34 -62 c3 -7 -3 -10 -15 -7 -21 6 -23 0 -9 -27 7 -13 5 -21 -7
-31 -9 -8 -14 -9 -10 -3 4 7 1 27 -7 45 -14 34 -14 34 15 34 15 1 30 -4 33
-11z m2113 -12 c-10 -10 -15 -21 -12 -23 2 -3 -8 -19 -24 -36 -16 -18 -26 -35
-22 -39 3 -4 0 -4 -7 0 -14 8 1 46 19 46 5 0 12 8 16 18 7 18 33 52 41 52 3 0
-2 -8 -11 -18z m-2097 -32 c0 -5 -4 -12 -10 -15 -5 -3 -10 -4 -10 -1 0 2 -3
12 -6 20 -5 12 -2 15 10 10 9 -3 16 -10 16 -14z m2006 -99 c-9 -16 -13 -31
-10 -33 3 -3 -2 -8 -11 -11 -20 -8 -19 -1 6 39 25 41 35 45 15 5z m2274 -6
c-7 -8 -17 -12 -23 -8 -6 4 -3 9 9 14 27 11 28 11 14 -6z m-2315 -55 c3 -5 1
-10 -4 -10 -6 0 -11 5 -11 10 0 6 2 10 4 10 3 0 8 -4 11 -10z m1606 -197 c-12
-20 -14 -14 -5 12 4 9 9 14 11 11 3 -2 0 -13 -6 -23z m-1753 -39 c-14 -33 -27
-44 -48 -43 -11 0 -10 2 3 8 10 4 18 10 17 14 -4 17 23 68 32 59 5 -5 4 -21
-4 -38z m-1921 -12 c0 -10 -6 -19 -13 -19 -9 0 -9 5 -1 19 7 10 13 18 14 18 1
0 1 -8 0 -18z m70 -4 c-3 -8 -6 -5 -6 6 -1 11 2 17 5 13 3 -3 4 -12 1 -19z
m293 -2 c0 -3 -4 -8 -10 -11 -5 -3 -10 -1 -10 4 0 6 5 11 10 11 6 0 10 -2 10
-4z m1661 -54 c-4 -9 -6 -24 -3 -32 3 -12 2 -12 -8 -3 -8 7 -10 19 -5 30 5 10
7 22 6 26 -1 5 3 6 9 2 6 -4 7 -13 1 -23z m59 14 c0 -8 -6 -21 -13 -28 -8 -7
-16 -20 -19 -28 -3 -8 -6 1 -6 20 1 19 3 38 5 43 7 13 33 7 33 -7z m-2413 -21
c-5 -14 -29 -13 -34 2 -3 7 4 11 16 10 12 -1 20 -6 18 -12z m663 5 c0 -5 -4
-10 -10 -10 -5 0 -10 5 -10 10 0 6 5 10 10 10 6 0 10 -4 10 -10z m-707 -38
c-18 -5 -27 3 -18 17 4 7 10 7 20 -2 11 -10 11 -13 -2 -15z m2364 3 c0 -8 -4
-12 -9 -9 -4 3 -8 9 -8 15 0 5 4 9 8 9 5 0 9 -7 9 -15z m1618 5 c-3 -5 -12
-10 -18 -10 -7 0 -6 4 3 10 19 12 23 12 15 0z m-3885 -20 c0 -5 -2 -10 -4 -10
-3 0 -8 5 -11 10 -3 6 -1 10 4 10 6 0 11 -4 11 -10z m577 -32 c-3 -8 -6 -5 -6
6 -1 11 2 17 5 13 3 -3 4 -12 1 -19z m-22 -16 c2 -12 0 -24 -6 -27 -5 -4 -9 8
-9 26 0 35 8 35 15 1z m22 -15 c-5 -14 17 -39 27 -30 3 3 1 12 -5 20 -15 17
-1 17 16 -1 12 -12 11 -16 -8 -29 -18 -11 -25 -12 -34 -2 -14 15 -13 55 0 55
5 0 7 -6 4 -13z m72 -4 c0 -11 -3 -13 -6 -5 -2 6 -10 9 -15 6 -7 -4 -8 -2 -4
4 11 18 26 14 25 -5z m1826 -3 c3 -5 1 -10 -4 -10 -6 0 -11 5 -11 10 0 6 2 10
4 10 3 0 8 -4 11 -10z m-1832 -77 c-3 -21 1 -43 12 -59 9 -13 13 -29 10 -34
-3 -6 1 -10 9 -10 9 0 16 -5 16 -11 0 -5 5 -7 12 -3 7 5 8 3 3 -5 -4 -7 -16
-11 -26 -8 -11 3 -20 -1 -22 -12 -3 -9 -5 7 -6 34 -1 32 -4 45 -10 37 -7 -11
-9 -10 -14 3 -4 9 -3 13 3 10 9 -5 8 12 -4 76 -2 9 2 16 9 16 8 0 11 -12 8
-34z m37 33 c0 -3 -4 -8 -10 -11 -5 -3 -10 -1 -10 4 0 6 5 11 10 11 6 0 10 -2
10 -4z m-96 -72 c3 -8 2 -12 -4 -9 -6 3 -10 10 -10 16 0 14 7 11 14 -7z m1951
-4 c3 -6 -1 -7 -9 -4 -18 7 -21 14 -7 14 6 0 13 -4 16 -10z m-1815 -50 c0 -5
-4 -10 -10 -10 -5 0 -10 5 -10 10 0 6 5 10 10 10 6 0 10 -4 10 -10z m-10 -171
c0 -6 -4 -7 -10 -4 -5 3 -10 11 -10 16 0 6 5 7 10 4 6 -3 10 -11 10 -16z
m-703 -71 c-3 -8 -6 -5 -6 6 -1 11 2 17 5 13 3 -3 4 -12 1 -19z m831 -2 c-2
-21 -5 -23 -31 -15 -42 12 -48 23 -9 16 24 -5 32 -3 32 8 0 8 2 15 5 15 3 0 4
-11 3 -24z m942 10 c0 -3 -4 -8 -10 -11 -5 -3 -10 -1 -10 4 0 6 5 11 10 11 6
0 10 -2 10 -4z m-329 -68 c16 -3 29 -1 29 3 0 5 6 6 14 3 9 -3 12 -12 9 -22
-5 -11 -8 -12 -11 -4 -3 10 -7 10 -20 0 -12 -10 -14 -10 -8 0 5 8 -1 12 -18
12 -14 0 -26 -4 -26 -10 0 -5 7 -10 15 -10 8 0 15 -4 15 -9 0 -6 -16 -7 -35
-4 -26 4 -36 2 -41 -11 -8 -21 -21 -20 -26 2 -7 27 17 56 39 47 17 -7 17 -8
-2 -16 l-20 -9 20 3 c13 1 20 10 21 25 2 32 6 39 11 21 2 -10 17 -19 34 -21z
m-616 2 c3 -5 2 -10 -4 -10 -5 0 -13 5 -16 10 -3 6 -2 10 4 10 5 0 13 -4 16
-10z m2055 -10 c0 -5 -4 -10 -10 -10 -5 0 -10 5 -10 10 0 6 5 10 10 10 6 0 10
-4 10 -10z m800 0 c0 -5 -2 -10 -4 -10 -3 0 -8 5 -11 10 -3 6 -1 10 4 10 6 0
11 -4 11 -10z m-902 -28 c2 -12 -2 -22 -8 -22 -6 0 -8 -4 -5 -10 3 -5 0 -10
-7 -11 -10 0 -10 -2 0 -6 17 -7 15 -20 -3 -20 -8 0 -15 6 -15 14 0 7 -12 14
-27 14 -25 2 -24 2 7 9 19 4 29 8 23 9 -7 0 -13 11 -13 24 0 12 4 18 8 12 9
-13 32 -17 32 -6 0 5 -5 12 -10 14 -6 3 -5 4 2 3 7 -1 14 -12 16 -24z m909
-14 c-3 -8 -6 -5 -6 6 -1 11 2 17 5 13 3 -3 4 -12 1 -19z m-2194 -2 c4 -9 0
-13 -11 -11 -9 2 -20 4 -24 4 -5 1 -8 6 -8 11 0 15 37 12 43 -4z m-215 -26
c15 0 15 2 2 11 -12 9 -12 10 4 5 11 -4 23 -1 27 6 5 8 8 6 7 -9 -1 -12 -7
-19 -15 -16 -7 3 -13 -2 -13 -11 0 -9 -5 -16 -11 -16 -5 0 -7 5 -4 10 3 6 -1
10 -9 10 -10 0 -16 8 -15 23 1 16 2 18 6 5 2 -10 12 -18 21 -18z m-52 -20 c8
0 14 -5 14 -11 0 -6 -7 -9 -15 -5 -9 3 -15 0 -15 -9 0 -8 -7 -15 -16 -15 -14
0 -14 2 0 15 8 9 14 21 12 28 -1 7 -1 9 1 5 3 -5 11 -8 19 -8z m1499 0 c3 -5
1 -10 -4 -10 -6 0 -11 5 -11 10 0 6 2 10 4 10 3 0 8 -4 11 -10z m-1453 -46
c-5 -9 -8 -26 -5 -38 3 -20 3 -20 -6 -1 -8 18 2 55 15 55 3 0 1 -7 -4 -16z
m2742 -239 c-4 -8 -11 -15 -16 -15 -6 0 -5 6 2 15 7 8 14 15 16 15 2 0 1 -7
-2 -15z m-4254 -119 c0 -2 -9 -6 -20 -9 -11 -3 -18 -1 -14 4 5 9 34 13 34 5z
m730 -70 c0 -2 -8 -10 -17 -17 -16 -13 -17 -12 -4 4 13 16 21 21 21 13z m17
-53 c-3 -10 -5 -4 -5 12 0 17 2 24 5 18 2 -7 2 -21 0 -30z m57 2 c3 -8 1 -15
-4 -15 -6 0 -10 7 -10 15 0 8 2 15 4 15 2 0 6 -7 10 -15z m40 -47 c-3 -4 -14
-8 -25 -8 -11 0 -18 4 -15 8 2 4 14 8 25 8 11 0 17 -4 15 -8z m2924 -193 c-3
-3 -9 2 -12 12 -6 14 -5 15 5 6 7 -7 10 -15 7 -18z m-1921 -391 c-3 -3 -12 -4
-19 -1 -8 3 -5 6 6 6 11 1 17 -2 13 -5z m703 -34 c0 -5 -4 -10 -9 -10 -6 0
-13 5 -16 10 -3 6 1 10 9 10 9 0 16 -4 16 -10z m227 -16 c-3 -3 -12 -4 -19 -1
-8 3 -5 6 6 6 11 1 17 -2 13 -5z m-97 -11 c-19 -3 -38 -9 -41 -15 -4 -6 -13
-7 -20 -3 -18 12 16 24 61 23 l35 -1 -35 -4z m-1969 -51 c-7 -2 -18 1 -23 6
-8 8 -4 9 13 5 13 -4 18 -8 10 -11z m99 -59 c0 -11 19 -18 43 -14 4 0 7 -6 7
-15 0 -9 -5 -12 -12 -8 -7 4 -4 -2 6 -14 12 -14 15 -22 7 -22 -7 0 -20 9 -29
20 -11 12 -31 20 -54 22 -37 2 -40 12 -7 20 11 2 14 9 10 22 -7 17 -8 17 -23
2 -19 -18 -38 -21 -38 -6 0 6 5 9 11 8 6 -2 14 3 16 10 3 6 0 12 -6 12 -6 0
-11 4 -11 9 0 6 18 0 40 -11 22 -12 40 -28 40 -35z m103 -90 c-7 -2 -19 -2
-25 0 -7 3 -2 5 12 5 14 0 19 -2 13 -5z m27 -28 c0 -9 -6 -12 -15 -9 -8 4 -15
10 -15 15 0 5 7 9 15 9 8 0 15 -7 15 -15z m234 -93 c3 -5 -1 -9 -9 -9 -8 0
-12 4 -9 9 3 4 7 8 9 8 2 0 6 -4 9 -8z m53 -18 c-3 -3 -12 -4 -19 -1 -8 3 -5
6 6 6 11 1 17 -2 13 -5z m182 -146 c2 -6 6 -6 11 2 5 8 13 9 21 4 16 -9 41
-13 134 -18 91 -5 105 -9 121 -30 10 -15 9 -21 -8 -38 -11 -11 -22 -17 -25
-14 -7 6 -28 -14 -36 -34 -4 -12 -6 -11 -6 3 -1 19 -21 24 -21 5 0 -9 -4 -8
-10 2 -8 13 -10 12 -10 -3 0 -14 -5 -17 -19 -12 -43 13 -61 14 -61 0 0 -14
-37 -31 -47 -21 -4 3 1 6 10 6 10 0 17 5 17 11 0 5 -10 9 -22 7 -13 -2 -22 2
-21 9 1 6 -13 18 -32 27 -42 20 -45 29 -9 20 19 -5 25 -4 20 5 -4 6 -15 11
-24 12 -11 0 -12 3 -4 6 6 2 12 9 12 15 0 6 -7 7 -16 4 -13 -5 -15 -2 -11 14
3 11 2 18 -3 15 -4 -3 -10 1 -13 9 -4 11 1 13 21 10 15 -3 29 -10 31 -16z
m136 -148 c3 -5 1 -10 -4 -10 -6 0 -11 5 -11 10 0 6 2 10 4 10 3 0 8 -4 11
-10z m-35 -20 c0 -5 -4 -10 -10 -10 -5 0 -10 5 -10 10 0 6 5 10 10 10 6 0 10
-4 10 -10z"/>
<path d="M4951 6103 c-10 -26 -10 -27 4 -9 8 11 15 23 15 28 0 15 -7 8 -19
-19z"/>
<path d="M4912 6029 c-22 -37 -22 -40 -4 -30 15 8 37 59 28 68 -1 1 -12 -16
-24 -38z"/>
<path d="M1962 7416 c23 -10 26 -14 15 -25 -8 -9 -8 -12 0 -7 6 3 13 -1 16
-11 4 -14 5 -13 6 5 1 25 16 30 25 7 7 -19 23 -19 23 0 0 10 -19 21 -50 30
-60 18 -73 18 -35 1z"/>
<path d="M2066 7365 c4 -8 11 -15 16 -15 6 0 5 6 -2 15 -7 8 -14 15 -16 15 -2
0 -1 -7 2 -15z"/>
<path d="M2134 7323 c2 -9 8 -19 15 -21 10 -3 10 0 2 17 -14 25 -20 27 -17 4z"/>
<path d="M2190 7263 c8 -3 22 -11 30 -17 13 -10 13 -9 1 7 -7 9 -21 17 -30 16
-13 0 -14 -1 -1 -6z"/>
<path d="M2232 7205 c4 -4 3 -14 -3 -21 -10 -13 6 -32 18 -20 4 3 1 6 -7 6
-10 0 -10 3 -1 14 9 11 9 16 -1 22 -7 4 -10 4 -6 -1z"/>
<path d="M5956 6709 c-14 -11 -24 -24 -21 -29 3 -4 -2 -13 -10 -20 -8 -7 -15
-18 -15 -26 0 -7 -9 -19 -19 -27 -22 -14 -71 -94 -71 -114 0 -24 25 -12 48 23
12 20 22 40 22 45 0 5 4 9 10 9 5 0 14 10 21 21 9 17 8 20 -3 14 -7 -4 1 5 19
21 40 36 79 104 59 104 -7 0 -25 -9 -40 -21z"/>
<path d="M2850 6181 c0 -6 4 -13 10 -16 6 -3 7 1 4 9 -7 18 -14 21 -14 7z"/>
<path d="M2977 5967 c-3 -8 1 -14 8 -14 7 0 11 6 8 14 -3 7 -6 13 -8 13 -2 0
-5 -6 -8 -13z"/>
<path d="M2978 5934 c-11 -10 25 -72 45 -77 11 -4 15 -1 10 6 -8 12 -10 18
-12 39 0 6 -4 8 -8 4 -4 -3 -12 3 -18 14 -6 11 -14 18 -17 14z"/>
<path d="M3080 5720 c0 -5 5 -10 10 -10 6 0 10 5 10 10 0 6 -4 10 -10 10 -5 0
-10 -4 -10 -10z"/>
<path d="M5197 5556 c-14 -25 -23 -46 -21 -46 16 0 44 22 39 31 -4 5 -2 9 3 9
14 0 24 32 14 42 -6 6 -20 -9 -35 -36z"/>
<path d="M3265 5481 c5 -17 4 -21 -5 -16 -9 6 -9 3 0 -14 6 -12 15 -19 21 -16
5 4 9 2 9 -4 0 -5 -6 -12 -12 -14 -8 -3 -5 -6 5 -6 10 -1 16 -5 13 -9 -3 -5 1
-9 9 -9 10 0 7 13 -12 51 -29 59 -39 71 -28 37z"/>
<path d="M5148 5463 c7 -3 16 -2 19 1 4 3 -2 6 -13 5 -11 0 -14 -3 -6 -6z"/>
<path d="M5126 5435 c-3 -8 -1 -15 4 -15 6 0 10 7 10 15 0 8 -2 15 -4 15 -2 0
-6 -7 -10 -15z"/>
<path d="M5101 5403 c-1 -17 16 -25 25 -12 4 7 3 9 -4 5 -5 -3 -13 0 -15 6 -4
9 -6 10 -6 1z"/>
<path d="M3340 5351 c0 -6 4 -13 10 -16 6 -3 7 1 4 9 -7 18 -14 21 -14 7z"/>
<path d="M3247 5323 c-3 -5 5 -8 18 -8 13 0 21 3 18 8 -2 4 -10 7 -18 7 -8 0
-16 -3 -18 -7z"/>
<path d="M5033 5323 c-14 -3 -25 -14 -29 -29 -3 -13 -10 -24 -15 -24 -5 0 -9
-7 -9 -15 0 -8 -4 -15 -10 -15 -5 0 -10 -7 -10 -15 0 -9 -7 -18 -15 -21 -8 -4
-13 -10 -10 -14 3 -4 -2 -13 -10 -20 -8 -7 -15 -20 -15 -29 0 -9 -5 -22 -12
-29 -6 -6 -9 -14 -6 -18 9 -8 50 15 43 25 -3 5 2 11 10 15 8 3 15 12 15 20 0
9 9 20 21 26 11 7 18 17 16 24 -3 7 8 27 25 45 16 17 31 43 33 56 1 14 2 24 1
24 0 -1 -11 -4 -23 -6z"/>
<path d="M4833 5023 c-7 -2 -13 -13 -13 -24 0 -11 -13 -33 -30 -50 -16 -18
-27 -35 -24 -40 3 -5 1 -9 -3 -9 -5 0 -9 -9 -10 -20 -2 -18 1 -17 26 8 16 15
31 38 35 50 4 12 13 21 19 19 7 -1 12 5 12 13 0 8 6 21 13 28 20 22 4 37 -25
25z"/>
<path d="M3546 4985 c-3 -9 -2 -13 4 -10 10 6 14 -6 10 -40 -1 -11 1 -17 6
-12 4 4 16 -1 26 -10 14 -12 12 -4 -8 33 -15 27 -28 50 -29 52 -2 2 -5 -4 -9
-13z"/>
<path d="M4740 4829 c0 -5 5 -7 10 -4 6 3 10 8 10 11 0 2 -4 4 -10 4 -5 0 -10
-5 -10 -11z"/>
<path d="M3706 4518 c3 -5 10 -6 15 -2 5 3 17 0 25 -7 12 -10 13 -9 8 4 -3 10
-16 16 -29 15 -13 -1 -21 -6 -19 -10z"/>
<path d="M3445 4510 c-4 -6 5 -10 19 -10 14 0 26 5 26 10 0 6 -9 10 -19 10
-11 0 -23 -4 -26 -10z"/>
<path d="M3586 4445 c4 -8 1 -15 -5 -15 -6 0 -11 -8 -11 -17 0 -14 2 -15 9 -4
5 7 14 10 20 7 6 -4 11 -4 12 1 0 4 2 16 4 26 2 11 -3 17 -16 17 -12 0 -16 -5
-13 -15z"/>
<path d="M3760 4445 c0 -8 5 -15 10 -15 6 0 10 7 10 15 0 8 -4 15 -10 15 -5 0
-10 -7 -10 -15z"/>
<path d="M3715 4430 c-3 -5 -2 -10 4 -10 5 0 13 5 16 10 3 6 2 10 -4 10 -5 0
-13 -4 -16 -10z"/>
<path d="M3426 4364 c-11 -8 -16 -14 -10 -14 13 0 39 18 34 24 -3 2 -14 -2
-24 -10z"/>
<path d="M3421 4324 c0 -11 3 -14 6 -6 3 7 2 16 -1 19 -3 4 -6 -2 -5 -13z"/>
<path d="M4137 3893 c-10 -10 -8 -33 3 -33 5 0 7 7 4 15 -5 11 -2 13 10 9 9
-3 16 -1 16 5 0 12 -23 15 -33 4z"/>
<path d="M4113 3843 c4 -3 1 -13 -6 -22 -11 -14 -10 -14 5 -2 16 12 16 31 1
31 -4 0 -3 -3 0 -7z"/>
<path d="M4150 3815 c12 -15 30 -12 30 6 0 5 -10 9 -21 9 -18 0 -19 -2 -9 -15z"/>
<path d="M4166 3698 c3 -4 11 -5 19 -1 21 7 19 12 -4 10 -11 0 -18 -5 -15 -9z"/>
<path d="M4445 3659 c-4 -6 -5 -12 -2 -15 2 -3 7 2 10 11 7 17 1 20 -8 4z"/>
<path d="M4390 3590 c0 -5 5 -10 10 -10 6 0 10 5 10 10 0 6 -4 10 -10 10 -5 0
-10 -4 -10 -10z"/>
<path d="M4428 3593 c7 -3 16 -2 19 1 4 3 -2 6 -13 5 -11 0 -14 -3 -6 -6z"/>
<path d="M4380 3548 c0 -11 12 -10 30 2 12 7 10 9 -8 7 -12 0 -22 -5 -22 -9z"/>
<path d="M8468 7573 c7 -3 16 -2 19 1 4 3 -2 6 -13 5 -11 0 -14 -3 -6 -6z"/>
<path d="M7976 7433 c-6 -14 -5 -15 5 -6 7 7 10 15 7 18 -3 3 -9 -2 -12 -12z"/>
<path d="M7787 7093 c-4 -3 -7 -11 -7 -17 0 -6 5 -5 12 2 6 6 9 14 7 17 -3 3
-9 2 -12 -2z"/>
<path d="M8586 6975 c-9 -26 -7 -32 5 -12 6 10 9 21 6 23 -2 3 -7 -2 -11 -11z"/>
<path d="M7646 6833 c-6 -14 -5 -15 5 -6 7 7 10 15 7 18 -3 3 -9 -2 -12 -12z"/>
<path d="M8486 6785 c-9 -23 -8 -25 9 -25 17 0 19 9 6 28 -7 11 -10 10 -15 -3z"/>
<path d="M8086 6063 c-6 -14 -5 -15 5 -6 7 7 10 15 7 18 -3 3 -9 -2 -12 -12z"/>
<path d="M8027 5943 c-4 -3 -7 -11 -7 -17 0 -6 5 -5 12 2 6 6 9 14 7 17 -3 3
-9 2 -12 -2z"/>
<path d="M7060 5805 c0 -8 2 -15 4 -15 2 0 6 7 10 15 3 8 1 15 -4 15 -6 0 -10
-7 -10 -15z"/>
<path d="M7036 5753 c-6 -14 -5 -15 5 -6 7 7 10 15 7 18 -3 3 -9 -2 -12 -12z"/>
<path d="M6990 5680 c-7 -16 -16 -27 -21 -24 -5 3 -6 -2 -3 -10 3 -9 1 -16 -6
-16 -6 0 -8 -4 -5 -10 3 -5 1 -10 -4 -10 -6 0 -11 -7 -11 -15 0 -8 -4 -15 -9
-15 -5 0 -12 -11 -15 -25 -4 -14 -11 -23 -16 -20 -5 3 -7 0 -4 -8 3 -8 -2 -20
-11 -27 -8 -7 -15 -19 -15 -27 0 -25 19 -3 46 53 14 30 31 60 38 67 15 15 58
108 52 114 -2 2 -9 -10 -16 -27z"/>
<path d="M6826 5408 c3 -5 -2 -18 -12 -29 -9 -10 -14 -22 -11 -26 8 -7 33 23
40 48 2 9 -2 16 -9 16 -7 0 -11 -4 -8 -9z"/>
<path d="M6780 5325 c0 -8 -7 -15 -16 -15 -10 0 -13 -6 -9 -19 3 -12 -3 -29
-18 -47 -22 -28 -47 -78 -47 -92 1 -4 10 11 22 33 11 22 24 42 27 45 7 5 61
99 61 106 0 2 -4 4 -10 4 -5 0 -10 -7 -10 -15z"/>
<path d="M2651 5274 c0 -11 3 -14 6 -6 3 7 2 16 -1 19 -3 4 -6 -2 -5 -13z"/>
<path d="M6615 5040 c-9 -16 -13 -30 -11 -30 3 0 12 14 21 30 9 17 13 30 11
30 -3 0 -12 -13 -21 -30z"/>
<path d="M6535 4909 c-4 -6 -5 -12 -2 -15 2 -3 7 2 10 11 7 17 1 20 -8 4z"/>
<path d="M7377 4741 c-4 -17 -3 -21 5 -13 5 5 8 16 6 23 -3 8 -7 3 -11 -10z"/>
<path d="M8016 4671 c4 -8 11 -28 15 -45 6 -29 7 -29 8 -5 1 14 -6 34 -15 45
-8 10 -12 13 -8 5z"/>
<path d="M6245 4464 c-9 -15 -12 -23 -6 -20 11 7 35 46 28 46 -3 0 -12 -12
-22 -26z"/>
<path d="M7921 4274 c0 -11 3 -14 6 -6 3 7 2 16 -1 19 -3 4 -6 -2 -5 -13z"/>
<path d="M3007 4259 c7 -7 15 -10 18 -7 3 3 -2 9 -12 12 -14 6 -15 5 -6 -5z"/>
<path d="M7906 4235 c-3 -9 -6 -22 -5 -28 0 -7 5 -1 10 12 5 13 8 26 5 28 -2
2 -6 -3 -10 -12z"/>
<path d="M3010 4230 c0 -5 5 -10 11 -10 5 0 7 5 4 10 -3 6 -8 10 -11 10 -2 0
-4 -4 -4 -10z"/>
<path d="M3040 4230 c0 -5 5 -10 10 -10 6 0 10 5 10 10 0 6 -4 10 -10 10 -5 0
-10 -4 -10 -10z"/>
<path d="M6060 4180 c-6 -11 -8 -20 -6 -20 3 0 10 9 16 20 6 11 8 20 6 20 -3
0 -10 -9 -16 -20z"/>
<path d="M5892 4170 c0 -14 2 -19 5 -12 2 6 2 18 0 25 -3 6 -5 1 -5 -13z"/>
<path d="M7681 3944 c0 -11 3 -14 6 -6 3 7 2 16 -1 19 -3 4 -6 -2 -5 -13z"/>
<path d="M7745 3869 c-4 -6 -5 -12 -2 -15 2 -3 7 2 10 11 7 17 1 20 -8 4z"/>
<path d="M7675 3739 c-4 -6 -5 -12 -2 -15 2 -3 7 2 10 11 7 17 1 20 -8 4z"/>
<path d="M6278 3723 c7 -3 16 -2 19 1 4 3 -2 6 -13 5 -11 0 -14 -3 -6 -6z"/>
<path d="M6695 3700 c-3 -6 1 -7 9 -4 11 4 16 0 16 -10 0 -9 4 -16 10 -16 5 0
7 8 3 18 -5 14 -3 13 10 -3 12 -14 16 -16 17 -5 0 11 3 11 12 2 7 -7 16 -12
21 -12 5 0 -2 9 -16 20 -27 21 -72 27 -82 10z"/>
<path d="M5890 3691 c0 -6 4 -13 10 -16 6 -3 7 1 4 9 -7 18 -14 21 -14 7z"/>
<path d="M7610 3629 c-7 -11 -10 -23 -7 -25 2 -2 9 7 15 21 14 30 7 33 -8 4z"/>
<path d="M7478 3623 c6 -2 18 -2 25 0 6 3 1 5 -13 5 -14 0 -19 -2 -12 -5z"/>
<path d="M7552 3543 c-13 -19 -21 -37 -19 -39 3 -3 14 12 26 32 28 47 23 53
-7 7z"/>
<path d="M7504 3468 l-19 -23 23 19 c21 18 27 26 19 26 -2 0 -12 -10 -23 -22z"/>
<path d="M7470 3425 c-7 -9 -10 -18 -7 -21 3 -3 10 4 17 15 13 25 8 27 -10 6z"/>
<path d="M7334 3248 l-19 -23 23 19 c12 11 22 21 22 23 0 8 -8 2 -26 -19z"/>
<path d="M7264 3168 l-19 -23 23 19 c12 11 22 21 22 23 0 8 -8 2 -26 -19z"/>
<path d="M7173 3071 c-25 -21 -30 -33 -10 -25 10 4 43 45 35 44 -2 -1 -13 -9
-25 -19z"/>
<path d="M7049 2954 c-13 -14 -49 -44 -80 -65 -31 -21 -64 -46 -73 -54 -9 -9
-16 -13 -16 -8 0 4 -6 1 -13 -7 -7 -9 -27 -25 -46 -37 -18 -11 -29 -23 -23
-27 6 -3 25 7 43 24 19 16 37 30 42 30 5 0 43 29 86 64 73 61 119 106 109 106
-2 0 -15 -12 -29 -26z"/>
<path d="M6751 2735 c-13 -7 -27 -18 -31 -24 -3 -6 -16 -13 -28 -16 -23 -4
-102 -47 -141 -77 -14 -10 -32 -16 -43 -13 -10 4 -18 1 -18 -5 0 -6 -4 -9 -9
-6 -10 7 -34 -18 -25 -27 5 -5 107 40 144 63 8 6 40 23 70 39 58 31 131 82
114 80 -5 -1 -20 -7 -33 -14z"/>
<path d="M4237 2705 c-11 -7 -26 -11 -35 -9 -10 3 0 -4 20 -15 31 -18 41 -19
63 -9 34 15 32 28 -6 28 -17 0 -28 4 -24 10 8 13 4 12 -18 -5z"/>
<path d="M4330 2665 c-10 -12 -16 -13 -26 -4 -11 9 -14 8 -14 -1 0 -6 9 -14
20 -17 11 -3 17 -10 13 -16 -3 -6 -1 -7 5 -3 7 4 12 3 12 -2 0 -6 10 -8 22 -4
21 5 21 5 -2 14 -33 12 -35 15 -20 33 7 8 10 15 7 15 -2 0 -10 -7 -17 -15z"/>
<path d="M6521 2654 c0 -11 3 -14 6 -6 3 7 2 16 -1 19 -3 4 -6 -2 -5 -13z"/>
<path d="M4415 2590 c-3 -5 3 -10 15 -10 12 0 18 5 15 10 -3 6 -10 10 -15 10
-5 0 -12 -4 -15 -10z"/>
<path d="M3420 2580 c0 -5 5 -10 11 -10 5 0 7 -4 4 -10 -3 -5 3 -10 14 -10 27
0 26 4 -4 24 -14 9 -25 12 -25 6z"/>
<path d="M4490 2550 c-8 -5 -10 -10 -5 -10 6 0 17 5 25 10 8 5 11 10 5 10 -5
0 -17 -5 -25 -10z"/>
<path d="M6400 2549 c0 -3 -12 -10 -27 -17 -25 -10 -26 -11 -3 -5 14 3 39 11
55 18 l30 12 -27 -1 c-16 0 -28 -4 -28 -7z"/>
<path d="M4520 2540 c-8 -5 -10 -10 -5 -10 6 0 17 5 25 10 8 5 11 10 5 10 -5
0 -17 -5 -25 -10z"/>
<path d="M6280 2505 c-38 -10 -42 -13 -23 -19 14 -4 33 0 55 14 37 22 33 23
-32 5z"/>
<path d="M3597 2483 c3 -7 11 -13 19 -13 7 0 11 6 8 13 -3 8 -11 14 -18 14 -8
0 -12 -6 -9 -14z"/>
<path d="M6215 2480 c3 -5 14 -10 23 -10 15 0 15 2 2 10 -20 13 -33 13 -25 0z"/>
<path d="M6170 2470 c0 -5 -7 -10 -17 -10 -9 0 -14 -2 -11 -5 3 -3 19 -2 37 1
23 5 29 9 19 15 -18 12 -28 11 -28 -1z"/>
<path d="M10470 10785 c0 -8 5 -15 10 -15 6 0 10 7 10 15 0 8 -4 15 -10 15 -5
0 -10 -7 -10 -15z"/>
<path d="M10548 10793 c7 -3 16 -2 19 1 4 3 -2 6 -13 5 -11 0 -14 -3 -6 -6z"/>
<path d="M6184 10770 c0 -11 4 -20 8 -20 4 0 8 9 8 20 0 11 -4 20 -8 20 -4 0
-8 -9 -8 -20z"/>
</g>
</svg>
